<?xml version="1.0" standalone="no"?>
<svg version="1.0" xmlns="http://www.w3.org/2000/svg"
     width="512.000000pt" height="512.000000pt" viewBox="0 0 512.000000 512.000000"
     preserveAspectRatio="xMidYMid meet">

    <g transform="translate(0.000000,512.000000) scale(0.100000,-0.100000)"
       fill="#cd2d37" stroke="none">
        <path d="M404 5105 c-169 -37 -305 -154 -372 -322 l-27 -68 -3 -2110 c-2
-1542 0 -2128 9 -2178 34 -209 210 -384 419 -417 90 -14 4170 -14 4260 0 208
33 385 209 420 418 8 48 10 659 8 2172 l-3 2105 -21 55 c-55 143 -131 235
-244 294 -133 70 17 66 -2295 65 -1704 0 -2101 -3 -2151 -14z m2193 -1152
c167 -56 268 -170 314 -353 11 -43 14 -153 14 -490 0 -392 -2 -441 -18 -500
-54 -190 -175 -305 -364 -345 -50 -11 -144 -15 -360 -15 l-293 0 0 -560 0
-560 -310 0 -310 0 0 1425 0 1426 633 -3 c613 -3 634 -4 694 -25z m1258 -1398
l0 -1420 -310 0 -310 0 -3 1423 -2 1422 312 -2 313 -3 0 -1420z"/>
        <path d="M1890 3115 l0 -447 186 4 186 3 24 28 24 28 0 384 0 384 -24 28 -24
28 -186 3 -186 4 0 -447z"/>
    </g>
</svg>
